<svg width="20" height="20" viewBox="0 0 20 20" fill="none" xmlns="http://www.w3.org/2000/svg">
<g clip-path="url(#clip0_181_1478)">
<path d="M10 0C7.34844 0 4.80312 1.05422 2.92969 2.92891C1.05432 4.80434 0.000519484 7.34778 0 10C0 12.6511 1.05469 15.1964 2.92969 17.0711C4.80312 18.9458 7.34844 20 10 20C12.6516 20 15.1969 18.9458 17.0703 17.0711C18.9453 15.1964 20 12.6511 20 10C20 7.34891 18.9453 4.80359 17.0703 2.92891C15.1969 1.05422 12.6516 0 10 0Z" fill="#409EFF"/>
<path d="M4.5267 9.89453C7.44232 8.62453 9.38607 7.78719 10.3579 7.38266C13.1361 6.2275 13.7126 6.02688 14.0892 6.02008C14.172 6.01875 14.3564 6.03922 14.4767 6.13648C14.5767 6.21852 14.6048 6.32945 14.6189 6.40734C14.6314 6.48516 14.6486 6.6625 14.6345 6.80094C14.4845 8.38219 13.8329 12.2194 13.5017 13.9905C13.3626 14.7398 13.0861 14.9911 12.8189 15.0156C12.2376 15.0691 11.797 14.6319 11.2345 14.2633C10.3548 13.6862 9.85795 13.3272 9.00326 12.7642C8.01576 12.1136 8.65639 11.7559 9.21889 11.1716C9.36576 11.0186 11.9251 8.69125 11.9736 8.48016C11.9798 8.45375 11.9861 8.35531 11.9267 8.30344C11.8689 8.25141 11.7829 8.26922 11.7204 8.28328C11.6314 8.30328 10.2267 9.23266 7.5017 11.0713C7.10326 11.3453 6.74232 11.4789 6.41732 11.4719C6.06107 11.4642 5.37357 11.27 4.86264 11.1041C4.23764 10.9005 3.7392 10.7928 3.78295 10.447C3.80482 10.267 4.05326 10.0828 4.5267 9.89453Z" fill="white"/>
</g>
<defs>
<linearGradient id="paint0_linear_181_1478" x1="1000" y1="0" x2="1000" y2="2000" gradientUnits="userSpaceOnUse">
<stop stop-color="#2AABEE"/>
<stop offset="1" stop-color="#229ED9"/>
</linearGradient>
<clipPath id="clip0_181_1478">
<rect width="20" height="20" fill="white"/>
</clipPath>
</defs>
</svg>
