<svg xmlns="http://www.w3.org/2000/svg"><symbol id="sprite-referrals" viewBox="0 0 256 256"><title>referrals</title><g fill="#fff"><path d="M75.4 14.5c-13.3 3.1-24.9 12.2-31 24.6-3.6 7.3-4.5 11.6-4.5 20.3.1 11.4 2.9 19.7 9.7 28.4 8 10.2 20 16.3 33.7 17.2l5.4.4v-3.6c0-6.2 0-6.1-5.8-6.6-14.6-1-26.9-10.6-31.8-25-2-5.9-2-15.8.1-22.1C54.6 37.5 63.3 28.7 73.9 25c4.2-1.5 14.4-2 19.2-1 4.5.9 11.1 4.2 15.1 7.4 2.8 2.2 6.9 7.1 9 10.8.6 1 .9.9 4.8-.8 2.3-1 4.1-2.2 4.1-2.6 0-1.7-5.3-8.7-9.5-12.7-5.3-5-10.7-8.3-17.3-10.4-5.9-2-17.8-2.6-23.9-1.2z"/><path d="M148 43.8c-23.4 2.5-43.3 20.1-48.9 43.3-1.9 7.7-1.9 18.7-.1 26.3 5.8 23.5 25.6 40.9 49.4 43.3 20 2 39.6-6.6 51.4-22.6 10.9-14.8 14.1-33.9 8.6-51.1-8.3-25.7-33.4-42-60.4-39.2zm17.4 10.8c5.5 1.2 14.3 5.7 18.9 9.5 16.5 13.6 21.6 37.7 12.1 57-6 12.1-18.1 21.9-31.3 25.1-6.3 1.5-16.5 1.4-22.7-.3-20-5.5-33.7-22.3-35.1-42.8-1.8-27.5 21.5-51.3 48.9-49.7 2.9.1 7 .6 9.2 1.2zM45.7 100c-15.3 9.2-26.3 23-32 40.1-1.7 5-3.7 13.2-3.7 15.1 0 .6 1.5 1 4.4 1.5 4.8.7 5.4.6 5.4-1 0-2.4 3.1-13.2 5.2-17.9 4.2-9.7 12-19.6 20.2-25.7l3.5-2.6 4.2 3.2c5.2 4 12.5 7.6 18.9 9.2 6.8 1.7 21.7 1.6 23.5-.2.2-.2-.1-2.3-.7-4.7l-1.1-4.4-3.1.5c-13.4 1.9-25-1.7-34.5-10.9-2.8-2.7-5.2-4.9-5.3-4.8-.2-.1-2.4 1.2-4.9 2.6zm-10.5 61.2c-13 12.4-19.3 18.9-19.2 19.6.1.6.9 2.6 1.7 4.5l1.5 3.4 8.1.2 8.1.2 1.2 4.6c4.2 16.3 16 30.9 31.8 39.5 6.8 3.7 22 9 25.8 9 .6 0 1.5-1.5 2.5-3.8.9-2.2 1.6-4.1 1.7-4.2.1-.2-2-2.2-4.7-4.4-10.3-8.6-16-19.4-18.3-34-.5-3.4-.9-6.3-.9-6.6 0-.2 3.6-.6 8.1-.6l8-.2 1.7-4.2 1.7-4.1-19.4-18.6c-10.6-10.2-19.5-18.6-19.8-18.7-.1 0-9 8.2-19.6 18.4zm31.6 6.4 11.7 11.3-6.9.1h-6.9v4.2c0 15.3 4.1 31 10.4 40.3 1.1 1.5 1.8 2.8 1.6 2.8-.2 0-1.9-.8-3.9-1.8-8.1-4.1-16.6-12.2-21.3-20.2-3.1-5.2-6.1-14.1-7.2-20.7l-.7-4.7h-6.1c-3.3 0-6-.2-5.8-.6.2-.7 22.8-22.2 23.2-22.2.1.1 5.6 5.2 11.9 11.5z"/><path d="M107.2 151.7c-6.1 3.7-11.5 7.6-15.2 10.9l-3 2.8 3.3 3.4 3.3 3.4 4.4-3.6c6.1-5 10.1-7.6 11-7.2.4.2 2.5 1.9 4.7 3.8 2.2 1.8 6.6 4.7 9.8 6.4 14.1 7.4 30.2 9.1 45.6 4.9 6.6-1.8 16-6.7 21.9-11.4l5.1-4.1 4.1 2.8c15 10.1 25.4 24.4 30.5 41.9 1.8 6.1 3.4 17.5 3.4 23.5v3.9H112.5v9.2h132.6l.4-1.9c.2-1 .4-4.7.4-8.1 0-36.4-15.9-64.6-46.3-81.6l-3.6-2-4.7 4.5c-7.6 7.4-15.2 11.7-25.1 14.4-6.2 1.6-18.5 1.5-25.1-.3-9.5-2.5-17.3-7.1-24.5-14.3-2.3-2.3-4.4-4.2-4.6-4.2-.1 0-2.3 1.3-4.8 2.9z"/></g></symbol><symbol fill="none" id="sprite-telegram" viewBox="0 0 20 20"><title>telegram</title><g clip-path="url(#a)"><path d="M10 0a9.999 9.999 0 0 0-7.07 17.071A9.999 9.999 0 1 0 17.07 2.93 9.999 9.999 0 0 0 10 0Z" fill="#409EFF"/><path d="M4.527 9.895c2.915-1.27 4.86-2.108 5.83-2.512 2.78-1.155 3.356-1.356 3.732-1.363a.673.673 0 0 1 .388.116.43.43 0 0 1 .142.271c.012.078.03.255.015.394-.15 1.581-.801 5.418-1.132 7.19-.14.749-.416 1-.683 1.025-.581.053-1.022-.384-1.585-.753-.88-.577-1.376-.936-2.23-1.499-.988-.65-.348-1.008.215-1.592.147-.153 2.706-2.48 2.755-2.692.006-.026.012-.125-.047-.177-.058-.052-.144-.034-.207-.02-.089.02-1.493.95-4.218 2.788-.399.274-.76.408-1.085.4-.356-.007-1.043-.201-1.554-.367-.625-.204-1.124-.311-1.08-.657.022-.18.27-.364.744-.552Z" fill="#fff"/></g><defs><clipPath id="a"><path fill="#fff" d="M0 0h20v20H0z"/></clipPath></defs></symbol></svg>